<svg width="22" height="22" viewBox="0 0 22 22" fill="none" xmlns="http://www.w3.org/2000/svg">
<path d="M6.53125 10.6562C3.8775 10.6562 1.71875 12.815 1.71875 15.4688C1.71875 18.1225 3.8775 20.2812 6.53125 20.2812C9.185 20.2812 11.3438 18.1225 11.3438 15.4688C11.3438 12.815 9.185 10.6562 6.53125 10.6562ZM6.53125 19.5938C4.25666 19.5938 2.40625 17.7433 2.40625 15.4688C2.40625 13.1942 4.25666 11.3438 6.53125 11.3438C8.80584 11.3438 10.6562 13.1942 10.6562 15.4688C10.6562 17.7433 8.80584 19.5938 6.53125 19.5938Z" fill="white"/>
<path d="M6.53125 12.7188C5.01497 12.7188 3.78125 13.9525 3.78125 15.4688C3.78125 16.985 5.01497 18.2188 6.53125 18.2188C8.04753 18.2188 9.28125 16.985 9.28125 15.4688C9.28125 13.9525 8.04753 12.7188 6.53125 12.7188ZM6.53125 17.5312C5.39378 17.5312 4.46875 16.6062 4.46875 15.4688C4.46875 14.3313 5.39378 13.4062 6.53125 13.4062C7.66872 13.4062 8.59375 14.3313 8.59375 15.4688C8.59375 16.6062 7.66872 17.5312 6.53125 17.5312Z" fill="white"/>
<path d="M21.3125 16.0139L20.4236 15.125L20.9688 14.5798C21.1905 14.3581 21.3125 14.0635 21.3125 13.75C21.3125 13.4365 21.1905 13.1416 20.9688 12.9202L20.4236 12.375L20.625 12.1736C20.8467 11.9518 20.9688 11.6572 20.9688 11.3437C20.9688 11.0302 20.8467 10.7353 20.625 10.5139L19.7361 9.625C19.293 9.18156 18.5195 9.18156 18.0764 9.625L16.5 11.2014L10.7986 5.5L12.375 3.92356C12.5967 3.70218 12.7188 3.40725 12.7188 3.09375C12.7188 2.78025 12.5967 2.48531 12.375 2.26393L11.4861 1.375C11.043 0.93156 10.2695 0.93156 9.82644 1.375L9.625 1.57643L9.07981 1.03125C8.63672 0.58781 7.86328 0.58781 7.42019 1.03125L6.875 1.57643L5.98606 0.687498C5.54297 0.24406 4.76953 0.24406 4.32644 0.687498L2.75 2.26393C2.52828 2.48531 2.40625 2.78025 2.40625 3.09375C2.40625 3.40725 2.52828 3.70218 2.75 3.92356L3.63894 4.8125L3.09375 5.35768C2.87203 5.57906 2.75 5.874 2.75 6.1875C2.75 6.501 2.87203 6.79593 3.09375 7.01731L3.63894 7.5625L3.4375 7.76393C3.21578 7.98531 3.09375 8.28025 3.09375 8.59375C3.09375 8.90725 3.21578 9.20218 3.4375 9.42356L3.89366 9.87972C1.79919 10.8725 0.34375 13.001 0.34375 15.4687C0.34375 18.8805 3.11953 21.6562 6.53125 21.6562C8.99903 21.6562 11.1275 20.2008 12.1203 18.1063L12.5764 18.5625C12.7982 18.7842 13.0927 18.9062 13.4062 18.9062C13.7198 18.9062 14.0147 18.7842 14.2361 18.5625L14.4375 18.3611L14.9827 18.9062C15.2044 19.128 15.499 19.25 15.8125 19.25C16.126 19.25 16.4209 19.128 16.6423 18.9062L17.1875 18.3611L18.0764 19.25C18.2982 19.4717 18.5928 19.5937 18.9062 19.5937C19.2197 19.5937 19.5147 19.4717 19.7361 19.25L21.3125 17.6736C21.5342 17.4518 21.6562 17.1572 21.6562 16.8437C21.6562 16.5302 21.5342 16.2353 21.3125 16.0139ZM16.0139 11.6875L13.75 13.9514L11.0072 11.2087C10.9371 11.1347 10.8652 11.0632 10.7913 10.9928L8.04856 8.25L10.3125 5.98606L16.0139 11.6875ZM12.6954 15.0061C12.6593 14.5214 12.572 14.0511 12.4303 13.6039L13.2639 14.4375L12.6954 15.0061ZM7.5625 8.73606L8.39609 9.56965C7.94853 9.42803 7.47828 9.34072 6.99394 9.30462L7.5625 8.73606ZM3.23606 3.4375C3.14566 3.34709 3.09375 3.22162 3.09375 3.09375C3.09375 2.96587 3.14566 2.8404 3.23606 2.75L4.8125 1.17356C4.99331 0.992747 5.31919 0.992747 5.5 1.17356L6.38894 2.0625L4.125 4.32643L3.23606 3.4375ZM3.57981 6.53125C3.48941 6.44084 3.4375 6.31537 3.4375 6.1875C3.4375 6.05962 3.48941 5.93415 3.57981 5.84375L7.90625 1.51731C8.08706 1.3365 8.41294 1.3365 8.59375 1.51731L9.13894 2.0625L4.125 7.07644L3.57981 6.53125ZM3.92356 8.9375C3.83316 8.84709 3.78125 8.72162 3.78125 8.59375C3.78125 8.46587 3.83316 8.3404 3.92356 8.25L10.3125 1.86106C10.4933 1.68025 10.8192 1.68025 11 1.86106L11.8889 2.75C11.9793 2.8404 12.0312 2.96587 12.0312 3.09375C12.0312 3.22162 11.9793 3.34709 11.8889 3.4375L6.01906 9.30703C5.522 9.34793 5.04247 9.44728 4.58528 9.59922L3.92356 8.9375ZM6.53125 20.9687C3.49869 20.9687 1.03125 18.5013 1.03125 15.4687C1.03125 12.4362 3.49869 9.96875 6.53125 9.96875C7.99116 9.96875 9.31666 10.5445 10.3022 11.4757L10.5243 11.6978C11.4555 12.6833 12.0312 14.0088 12.0312 15.4687C12.0312 18.5013 9.56381 20.9687 6.53125 20.9687ZM13.0625 18.0764L12.4004 17.4144C12.5524 16.9575 12.6517 16.4777 12.6926 15.9806L18.5625 10.1111C18.7433 9.93025 19.0692 9.93025 19.25 10.1111L20.1389 11C20.2293 11.0904 20.2812 11.2159 20.2812 11.3437C20.2812 11.4716 20.2293 11.5971 20.1389 11.6875L13.75 18.0764C13.5692 18.2572 13.2433 18.2572 13.0625 18.0764ZM16.1562 18.4202C15.9754 18.601 15.6496 18.601 15.4688 18.4202L14.9236 17.875L19.9375 12.8611L20.4827 13.4062C20.5731 13.4967 20.625 13.6221 20.625 13.75C20.625 13.8779 20.5731 14.0033 20.4827 14.0937L16.1562 18.4202ZM20.8264 17.1875L19.25 18.7639C19.0692 18.9447 18.7433 18.9447 18.5625 18.7639L17.6736 17.875L19.9375 15.6111L20.8264 16.5C20.9168 16.5904 20.9688 16.7159 20.9688 16.8437C20.9688 16.9716 20.9168 17.0971 20.8264 17.1875Z" fill="white"/>
</svg>
