<svg  width="22" height="22" viewBox="0 0 22 22" fill="black" xmlns="http://www.w3.org/2000/svg">
                            <path d="M0.345856 12.371C0.521383 12.4067 0.706149 12.324 0.797887 12.1706C0.888895 12.0184 0.875919 11.822 0.76609 11.6828C0.651751 11.5379 0.451087 11.4828 0.278524 11.5477C0.113008 11.6099 0.000258409 11.773 5.96769e-07 11.9499C-0.000343153 12.1528 0.147856 12.3308 0.345856 12.371Z" />
                            <path d="M16.7707 10.0692C15.961 7.23221 13.3642 5.26648 10.3903 5.26648L10.363 5.26665C9.94849 5.27142 9.5909 5.51961 9.3257 5.73531C9.20732 5.83161 9.07738 5.90409 8.94151 5.95278V5.94659C8.94254 5.87036 8.94259 5.79164 8.94151 5.71078V4.39065C8.94151 3.51009 9.65789 2.79372 10.5384 2.79372C10.7758 2.79372 10.9681 2.60134 10.9681 2.36403C10.9681 2.12671 10.7758 1.93434 10.5384 1.93434C9.63769 1.93434 8.84866 2.42169 8.42112 3.14657C8.23605 2.74873 7.98932 2.37228 7.66272 2.04645C5.99175 0.379559 2.95163 0.815906 2.82298 0.835285C2.63666 0.863387 2.49044 1.00952 2.46221 1.19579C2.44292 1.32298 2.01297 4.30454 3.63272 5.98101C3.305 6.14777 2.98935 6.34293 2.68849 6.56556C1.56283 7.39846 0.742473 8.53825 0.316094 9.86164C0.243305 10.0875 0.367442 10.3296 0.593329 10.4024C0.819044 10.4751 1.0613 10.3511 1.13405 10.1251C1.90473 7.73302 4.11372 6.12581 6.62829 6.12581L6.65085 6.12594C6.71182 6.12663 6.78409 6.1543 6.85546 6.1925C6.86346 6.19727 6.87162 6.20178 6.87987 6.20595C6.99614 6.27212 7.10614 6.36158 7.15573 6.40193C7.94154 7.04105 9.08219 7.04109 9.86796 6.40197C9.95132 6.33417 10.205 6.12788 10.3705 6.12598L10.3929 6.12586C12.9037 6.12586 15.1072 7.73787 15.8786 10.0906C13.0931 10.3829 10.9142 12.7621 10.9142 15.6442C10.9142 17.2482 11.589 18.6964 12.6677 19.7158C11.8275 20.2835 11.0082 20.3671 10.3033 20.3671L10.258 20.3666C10.2493 20.3663 10.229 20.3665 10.1981 20.3675C9.51016 20.3923 8.97254 20.2714 8.64275 20.1659C8.55754 20.1386 8.46606 20.1386 8.38086 20.1659C8.05111 20.2714 7.51362 20.3923 6.82543 20.3675C6.79458 20.3665 6.77425 20.3663 6.76587 20.3666L6.72037 20.3671C5.80415 20.3671 3.89771 20.3671 2.26507 17.0731C1.75886 16.0518 1.34502 14.8857 1.09984 13.7897C1.04807 13.5581 0.818313 13.4123 0.586712 13.4642C0.35511 13.516 0.209403 13.7457 0.26118 13.9773C0.520969 15.1386 0.959165 16.3735 1.49503 17.4547C3.15203 20.7978 5.15794 21.2265 6.72037 21.2265H6.74856C6.75217 21.2265 6.75578 21.2264 6.75939 21.2264L6.77894 21.2258L6.79496 21.2264C7.38845 21.2475 7.97897 21.1777 8.51182 21.0242C8.98259 21.1598 9.49826 21.2301 10.0213 21.2301C10.0903 21.2301 10.1595 21.2289 10.2286 21.2264L10.2446 21.2258L10.2642 21.2264C10.2678 21.2264 10.2714 21.2265 10.275 21.2265H10.3032C11.1513 21.2265 12.2527 21.1143 13.3627 20.2748C14.247 20.8765 15.3121 21.228 16.4571 21.228C19.5135 21.228 22.0001 18.7231 22.0001 15.6442C22.0001 12.6712 19.6818 10.2335 16.7707 10.0692ZM7.35407 5.48846L5.31302 3.11512C5.15824 2.93517 4.88694 2.91476 4.70703 3.06953C4.52712 3.22426 4.50666 3.49557 4.6614 3.67548L6.051 5.29132C5.52051 5.33699 5.0024 5.44536 4.50452 5.6138C4.42636 5.55166 4.35232 5.48588 4.28361 5.41739C3.20484 4.34111 3.22293 2.4183 3.27905 1.65229C4.04707 1.59622 5.97607 1.57779 7.05579 2.65488C7.96127 3.55817 8.09266 5.06272 8.08128 5.95243C7.94575 5.90371 7.81607 5.83135 7.698 5.73527C7.59629 5.6526 7.481 5.56516 7.35407 5.48846ZM6.78513 21.2257L6.78792 21.2257C6.7871 21.2257 6.78616 21.2257 6.78513 21.2257ZM10.236 21.2256L10.2384 21.2257C10.2375 21.2257 10.2367 21.2257 10.236 21.2256ZM16.4572 20.3687C13.8747 20.3687 11.7736 18.2493 11.7736 15.6442C11.7736 13.0391 13.8747 10.9197 16.4572 10.9197C19.0397 10.9197 21.1407 13.0391 21.1407 15.6442C21.1407 18.2493 19.0397 20.3687 16.4572 20.3687Z" />
                            <path d="M18.5103 14.1704H17.9221V13.5733C17.9221 13.0469 17.4957 12.6186 16.9715 12.6186H15.9422C15.4181 12.6186 14.9916 13.0469 14.9916 13.5733V14.1704H14.4034C13.8793 14.1704 13.4529 14.5987 13.4529 15.1251V16.1635C13.4529 16.69 13.8793 17.1183 14.4034 17.1183H14.9916V17.7153C14.9916 18.2417 15.4181 18.67 15.9422 18.67H16.9715C17.4957 18.67 17.9221 18.2418 17.9221 17.7153V17.1183H18.5103C19.0345 17.1183 19.4609 16.69 19.4609 16.1635V15.1251C19.4609 14.5987 19.0345 14.1704 18.5103 14.1704ZM18.6015 16.1635C18.6015 16.2161 18.5606 16.2588 18.5103 16.2588H17.4924C17.2551 16.2588 17.0627 16.4512 17.0627 16.6885V17.7153C17.0627 17.7679 17.0218 17.8106 16.9715 17.8106H15.9422C15.8919 17.8106 15.851 17.7679 15.851 17.7153V16.6885C15.851 16.4512 15.6586 16.2588 15.4213 16.2588H14.4034C14.3531 16.2588 14.3123 16.2161 14.3123 16.1635V15.1251C14.3123 15.0725 14.3532 15.0297 14.4034 15.0297H15.4213C15.6586 15.0297 15.851 14.8374 15.851 14.6V13.5733C15.851 13.5207 15.8919 13.478 15.9422 13.478H16.9715C17.0218 13.478 17.0627 13.5207 17.0627 13.5733V14.6C17.0627 14.8374 17.2551 15.0297 17.4924 15.0297H18.5103C18.5606 15.0297 18.6015 15.0725 18.6015 15.1251V16.1635Z" />
                        </svg>
