<svg width="22" height="22" viewBox="0 0 22 22" fill="black" xmlns="http://www.w3.org/2000/svg">
                            <path d="M19.9033 0H2.09649C1.58989 0 1.17773 0.412157 1.17773 0.91876C1.17773 1.09983 1.32452 1.24657 1.50554 1.24657C1.68657 1.24657 1.83335 1.09983 1.83335 0.91876C1.83335 0.773654 1.95139 0.655618 2.09649 0.655618H19.9034C20.0485 0.655618 20.1665 0.773654 20.1665 0.91876V21.0812C20.1665 21.2263 20.0485 21.3444 19.9034 21.3444H18.8562C18.6751 21.3444 18.5284 21.4911 18.5284 21.6722C18.5284 21.8533 18.6751 22 18.8562 22H19.9034C20.41 22 20.8221 21.5878 20.8221 21.0812V0.91876C20.8221 0.412157 20.4099 0 19.9033 0Z" />
                            <path d="M16.9498 21.3444H2.09649C1.95139 21.3444 1.83335 21.2263 1.83335 21.0812V2.45192C1.83335 2.27085 1.68657 2.12411 1.50554 2.12411C1.32452 2.12411 1.17773 2.27085 1.17773 2.45192V21.0812C1.17773 21.5878 1.58989 22 2.09649 22H16.9498C17.1309 22 17.2776 21.8532 17.2776 21.6721C17.2776 21.4911 17.1309 21.3444 16.9498 21.3444Z" />
                            <path d="M6.96537 3.70819H4.29632C4.11529 3.70819 3.96851 3.85493 3.96851 4.036V6.70497C3.96851 6.88604 4.11529 7.03278 4.29632 7.03278H6.96532C7.14635 7.03278 7.29313 6.88604 7.29313 6.70497V4.036C7.29313 3.85489 7.14639 3.70819 6.96537 3.70819ZM6.63756 6.37716H4.62417V4.36381H6.63756V6.37716Z" />
                            <path d="M6.96537 8.97699H4.29632C4.11529 8.97699 3.96851 9.12373 3.96851 9.3048V11.9738C3.96851 12.1549 4.11529 12.3016 4.29632 12.3016H6.96532C7.14635 12.3016 7.29313 12.1549 7.29313 11.9738V9.3048C7.29313 9.12369 7.14639 8.97699 6.96537 8.97699ZM6.63756 11.646H4.62417V9.63261H6.63756V11.646Z" />
                            <path d="M6.96537 14.2454H4.29632C4.11529 14.2454 3.96851 14.3921 3.96851 14.5732V17.2422C3.96851 17.4233 4.11529 17.57 4.29632 17.57H6.96532C7.14635 17.57 7.29313 17.4233 7.29313 17.2422V14.5732C7.29313 14.3921 7.14639 14.2454 6.96537 14.2454ZM6.63756 16.9144H4.62417V14.901H6.63756V16.9144Z" />
                            <path d="M17.9814 3.70819H8.95427C8.77325 3.70819 8.62646 3.85493 8.62646 4.036V6.70497C8.62646 6.88604 8.77325 7.03278 8.95427 7.03278H17.9814C18.1624 7.03278 18.3092 6.88604 18.3092 6.70497V4.036C18.3092 3.85489 18.1625 3.70819 17.9814 3.70819ZM9.28208 6.37716V4.36381H17.6536V6.37716H9.28208Z" />
                            <path d="M17.9814 8.97699H8.95427C8.77325 8.97699 8.62646 9.12373 8.62646 9.3048V11.9738C8.62646 12.1549 8.77325 12.3016 8.95427 12.3016H17.9814C18.1624 12.3016 18.3092 12.1549 18.3092 11.9738V9.3048C18.3092 9.12369 18.1625 8.97699 17.9814 8.97699ZM9.28208 11.646V9.63261H17.6536V11.646H9.28208Z" />
                            <path d="M17.9814 14.2454H8.95427C8.77325 14.2454 8.62646 14.3921 8.62646 14.5732V17.2422C8.62646 17.4233 8.77325 17.57 8.95427 17.57H17.9814C18.1624 17.57 18.3092 17.4233 18.3092 17.2422V14.5732C18.3092 14.3921 18.1625 14.2454 17.9814 14.2454ZM9.28208 16.9144V14.901H17.6536V16.9144H9.28208Z" />
                        </svg>