<svg width="22" height="22" viewBox="0 0 22 22"  xmlns="http://www.w3.org/2000/svg">
<g clip-path="url(#clip0)">
<path d="M14.03 0.223257C12.6594 0.061081 11.2799 -0.0135037 9.89985 -4.33368e-05C4.96525 -4.33368e-05 1.09985 1.93266 1.09985 4.39996V10.2666C1.09985 12.2404 3.58695 13.9029 7.25069 14.4631C6.22671 15.2023 5.14431 15.9641 4.00349 16.7486C3.81219 16.8799 3.69457 17.0942 3.68655 17.3261C3.67852 17.5579 3.78103 17.7799 3.96279 17.9241L8.85559 21.839C9.11501 22.0459 9.48066 22.0542 9.74916 21.8592C10.5683 21.2626 11.368 20.6393 12.1468 19.9994C12.9046 19.3758 13.6379 18.736 14.3468 18.0799C14.3505 18.0759 14.3556 18.0748 14.3589 18.0708L14.3615 18.0664C15.0557 17.4247 15.7211 16.7725 16.3576 16.1098C16.3653 16.1025 16.3756 16.0996 16.3825 16.0911C16.3895 16.0827 16.3884 16.079 16.3924 16.0735C16.8596 15.5862 17.315 15.096 17.7451 14.6028C18.9668 13.2014 20.487 11.4579 20.7767 9.31036C21.0722 7.11989 20.6641 3.87379 18.5422 1.93412C17.2167 0.718257 15.5179 0.413557 14.03 0.223257ZM9.89985 0.73329C14.2724 0.73329 17.9665 2.41262 17.9665 4.39996C17.9665 6.77632 13.2365 8.06662 9.89985 8.06662C5.52735 8.06662 1.83319 6.38729 1.83319 4.39996C1.83319 2.41262 5.52735 0.73329 9.89985 0.73329ZM1.83319 10.2666V6.18709C3.17885 7.73919 6.24529 8.79996 9.89985 8.79996C11.8276 8.83116 13.7434 8.49196 15.5432 7.80079C13.293 9.87644 10.9186 11.8133 8.43319 13.6007V11.7333C8.43319 11.5308 8.26903 11.3666 8.06652 11.3666C7.86402 11.3666 7.69985 11.5308 7.69985 11.7333V13.7866C7.08136 13.7058 6.4689 13.5841 5.86652 13.4222V11.3666C5.86652 11.1641 5.70236 11 5.49985 11C5.29735 11 5.13319 11.1641 5.13319 11.3666V13.2C4.62601 13.0301 4.13515 12.815 3.66652 12.5572V10.2666C3.66652 10.0641 3.50236 9.89996 3.29985 9.89996C3.09735 9.89996 2.93319 10.0641 2.93319 10.2666V12.0747C2.23652 11.5313 1.83319 10.9101 1.83319 10.2666ZM9.31319 21.2666L4.41855 17.3532C4.97772 16.9689 5.57612 16.5531 6.19725 16.1157C6.51974 16.3224 6.90646 16.4046 7.28515 16.3471C7.52229 16.2964 7.7698 16.3483 7.96657 16.49C8.16333 16.6317 8.291 16.85 8.31805 17.091C8.46553 17.942 9.2652 18.5199 10.1195 18.3927C10.3569 18.3441 10.6039 18.3973 10.8003 18.5394C10.9967 18.6814 11.1245 18.8992 11.1528 19.14C11.1937 19.3344 11.2634 19.5216 11.3596 19.6955C10.6926 20.2334 10.0099 20.7595 9.31319 21.2666ZM20.0532 9.21062C19.9684 9.79035 19.7934 10.3532 19.5348 10.879L19.0134 10.1456C18.8959 9.98058 18.6669 9.942 18.5019 10.0595C18.3368 10.1769 18.2982 10.4059 18.4157 10.571L19.1457 11.5976C18.7924 12.1661 18.3983 12.7082 17.9665 13.2198L16.9461 12.053C16.8601 11.9536 16.7275 11.9078 16.5985 11.933C16.4694 11.9582 16.3638 12.0505 16.3215 12.175C16.2793 12.2995 16.3069 12.437 16.3939 12.5356L17.4855 13.7866C17.3876 13.8999 17.2904 14.0118 17.1954 14.1203C16.8383 14.5302 16.4621 14.938 16.0786 15.3439L14.5386 14.0239C14.4399 13.9327 14.2993 13.9028 14.1721 13.9459C14.0449 13.9889 13.9515 14.0981 13.9285 14.2304C13.9055 14.3627 13.9567 14.497 14.0619 14.5805L15.5715 15.8759C15.0893 16.3691 14.587 16.8567 14.0707 17.3389L12.3382 15.8546C12.2386 15.7695 12.1012 15.7439 11.9777 15.7876C11.8542 15.8312 11.7633 15.9374 11.7394 16.0662C11.7154 16.195 11.762 16.3268 11.8615 16.412L13.5299 17.8398C13.0165 18.3065 12.4823 18.7638 11.9407 19.2148C11.9099 19.1316 11.8843 19.0466 11.8641 18.9603C11.717 18.1105 10.9181 17.5337 10.0652 17.6616C9.82696 17.7099 9.57935 17.6562 9.38246 17.5136C9.18557 17.371 9.05739 17.1524 9.02902 16.911C8.88394 16.0603 8.08297 15.4835 7.23015 15.6156C7.1205 15.6274 7.00993 15.628 6.90015 15.6174C11.0728 12.6474 16.0569 8.81206 17.9368 6.22046C18.3951 5.73673 18.6656 5.10535 18.6999 4.43992C18.7189 3.28712 17.9093 2.37266 16.9439 1.73136C17.3467 1.92515 17.7199 2.17528 18.0523 2.47422C19.8409 4.11029 20.3462 7.03629 20.0532 9.21062Z"/>
<path d="M9.88836 6.59985C11.3884 6.59985 13.892 6.16938 14.537 4.81052C14.9748 3.88798 14.2147 2.94052 13.3581 2.36192C12.5498 1.84983 11.6598 1.48002 10.7266 1.26852C10.4411 1.19613 10.1383 1.25401 9.89972 1.42655C9.75369 1.53175 9.63838 1.67403 9.56569 1.83868C7.01919 1.92192 5.13306 2.92145 5.13306 4.21652C5.13306 5.94535 8.02092 6.59985 9.88836 6.59985ZM12.5808 5.42652L12.7121 2.82098C12.7937 2.86987 12.8725 2.91986 12.9486 2.97095C14.3258 3.89935 14.2968 4.78302 12.5808 5.42652ZM10.2136 2.23028V2.22332C10.2199 2.14251 10.2614 2.06859 10.3273 2.02128C10.3897 1.97483 10.4698 1.95919 10.5451 1.97875C11.0404 2.10166 11.5254 2.26262 11.996 2.46018L11.8354 5.65238C11.2179 5.79559 10.586 5.86743 9.95216 5.86652L10.2136 2.23028ZM9.45386 2.57715L9.21956 5.84048C7.19886 5.69455 5.86639 4.90988 5.86639 4.21652C5.86639 3.49162 7.32022 2.68018 9.45386 2.57715Z" />
<path d="M10.9997 3.66675C10.7972 3.66675 10.6331 3.83091 10.6331 4.03341V4.40008C10.6331 4.60258 10.7972 4.76674 10.9997 4.76674C11.2022 4.76674 11.3664 4.60258 11.3664 4.40008V4.03341C11.3664 3.83091 11.2022 3.66675 10.9997 3.66675Z" />
<path d="M7.19581 17.6803C7.03765 17.5538 6.80684 17.5794 6.68027 17.7375C6.55371 17.8957 6.57932 18.1265 6.73747 18.2531L8.57081 19.7197C8.72896 19.8463 8.95977 19.8207 9.08634 19.6625C9.2129 19.5044 9.18729 19.2736 9.02914 19.147L7.19581 17.6803Z" />
</g>
<defs>
<clipPath id="clip0">
<rect width="22" height="22" />
</clipPath>
</defs>
</svg>
